<?xml version="1.0"?>
<svg xmlns="http://www.w3.org/2000/svg" xmlns:xlink="http://www.w3.org/1999/xlink" xmlns:svgjs="http://svgjs.com/svgjs" version="1.1" width="512" height="512" x="0" y="0" viewBox="0 0 64 64" style="enable-background:new 0 0 512 512" xml:space="preserve" class=""><g><g xmlns="http://www.w3.org/2000/svg" id="shopping-buy-marketing-seo-website"><path d="m59 2h-54a3.009 3.009 0 0 0 -3 3v54a3.009 3.009 0 0 0 3 3h54a3.009 3.009 0 0 0 3-3v-54a3.009 3.009 0 0 0 -3-3zm1 57a1 1 0 0 1 -1 1h-54a1 1 0 0 1 -1-1v-47h56zm0-49h-56v-5a1 1 0 0 1 1-1h54a1 1 0 0 1 1 1z" fill="#00256b" data-original="#000000" style="" class=""/><path d="m6 6h2v2h-2z" fill="#00256b" data-original="#000000" style="" class=""/><path d="m10 6h2v2h-2z" fill="#00256b" data-original="#000000" style="" class=""/><path d="m14 6h2v2h-2z" fill="#00256b" data-original="#000000" style="" class=""/><path d="m28 52a3 3 0 0 0 -2.816 2h-6.368a2.982 2.982 0 0 0 -5.632 0h-4.084l1.9-20.909a1 1 0 0 0 -1-1.091h-4v2h2.9l-1.9 20.909a1 1 0 0 0 1 1.091h5.184a2.982 2.982 0 0 0 5.632 0h6.368a2.982 2.982 0 0 0 5.632 0h5.184v-2h-5.184a3 3 0 0 0 -2.816-2zm-12 4a1 1 0 1 1 1-1 1 1 0 0 1 -1 1zm12 0a1 1 0 1 1 1-1 1 1 0 0 1 -1 1z" fill="#00256b" data-original="#000000" style="" class=""/><path d="m13 50h18a1 1 0 0 0 .986-.836l2-12a1 1 0 0 0 -.986-1.164h-3.08a7 7 0 1 0 -13.84 0h-2.08a1 1 0 0 0 -1 .917l-1 12a1 1 0 0 0 1 1.083zm10-20a5 5 0 1 1 -5 5 5.006 5.006 0 0 1 5-5zm-8.08 8h1.765a6.985 6.985 0 0 0 12.63 0h2.5l-1.662 10h-16.066z" fill="#00256b" data-original="#000000" style="" class=""/><path d="m23 38a1 1 0 0 0 .707-.293l3-3-1.414-1.414-1.293 1.293v-2.586h-2v2.586l-1.293-1.293-1.414 1.414 3 3a1 1 0 0 0 .707.293z" fill="#00256b" data-original="#000000" style="" class=""/><path d="m42 15h16v2h-16z" fill="#00256b" data-original="#000000" style="" class=""/><path d="m42 19h16v2h-16z" fill="#00256b" data-original="#000000" style="" class=""/><path d="m36 22a4 4 0 1 0 -4-4 4 4 0 0 0 4 4zm0-6a2 2 0 1 1 -2 2 2 2 0 0 1 2-2z" fill="#00256b" data-original="#000000" style="" class=""/><path d="m42 25h16v2h-16z" fill="#00256b" data-original="#000000" style="" class=""/><path d="m42 29h16v2h-16z" fill="#00256b" data-original="#000000" style="" class=""/><path d="m36 24a4 4 0 1 0 4 4 4 4 0 0 0 -4-4zm0 6a2 2 0 1 1 2-2 2 2 0 0 1 -2 2z" fill="#00256b" data-original="#000000" style="" class=""/><path d="m47 41a3 3 0 0 1 -3 3h-4v2h4a5.006 5.006 0 0 0 5-5v-8h-2z" fill="#00256b" data-original="#000000" style="" class=""/><path d="m36 44h2v2h-2z" fill="#00256b" data-original="#000000" style="" class=""/></g></g></svg>
